<svg xmlns="http://www.w3.org/2000/svg" xmlns:xlink="http://www.w3.org/1999/xlink" version="1.1" width="256" height="256" viewBox="0 0 256 256" xml:space="preserve">
<g style="stroke: none; stroke-width: 0; stroke-dasharray: none; stroke-linecap: butt; stroke-linejoin: miter; stroke-miterlimit: 10; fill: none; fill-rule: nonzero; opacity: 1;" transform="translate(1.4065934065934016 1.4065934065934016) scale(2.81 2.81)">
	<path d="M 11.254 78.342 H 1 v -26.95 h 10.254 c 1.808 0 3.273 1.465 3.273 3.273 v 20.404 C 14.528 76.876 13.062 78.342 11.254 78.342 z" style="stroke: none; stroke-width: 1; stroke-dasharray: none; stroke-linecap: butt; stroke-linejoin: miter; stroke-miterlimit: 10; fill: rgb(194,27,0); fill-rule: nonzero; opacity: 1;" transform=" matrix(1 0 0 1 0 0) " stroke-linecap="round"/>
	<path d="M 75.403 58.824 c 0 8.916 -11.53 14.464 -23.681 14.464 S 28.041 67.74 28.041 58.824 S 39.571 41 51.722 41 S 75.403 49.908 75.403 58.824 z" style="stroke: none; stroke-width: 1; stroke-dasharray: none; stroke-linecap: butt; stroke-linejoin: miter; stroke-miterlimit: 10; fill: rgb(169,73,0); fill-rule: nonzero; opacity: 1;" transform=" matrix(1 0 0 1 0 0) " stroke-linecap="round"/>
	<path d="M 51.722 74.289 c -11.964 0 -24.68 -5.42 -24.68 -15.465 c 0 -9.676 11.994 -18.824 24.68 -18.824 s 24.681 9.148 24.681 18.824 C 76.403 68.869 63.686 74.289 51.722 74.289 z M 51.722 42.001 c -11.446 0 -22.681 8.333 -22.681 16.824 c 0 8.429 11.532 13.465 22.681 13.465 c 11.149 0 22.681 -5.036 22.681 -13.465 C 74.403 50.334 63.169 42.001 51.722 42.001 z" style="stroke: none; stroke-width: 1; stroke-dasharray: none; stroke-linecap: butt; stroke-linejoin: miter; stroke-miterlimit: 10; fill: rgb(0,0,0); fill-rule: nonzero; opacity: 1;" transform=" matrix(1 0 0 1 0 0) " stroke-linecap="round"/>
	<path d="M 88.812 58.987 c -0.63 -2.057 -2.689 -3.321 -4.807 -2.944 c -6.345 1.129 -14.018 3.477 -21.259 5.18 c -0.036 -0.018 -0.072 -0.037 -0.108 -0.055 c -0.407 -4.088 -3.775 -7.253 -7.89 -7.392 l -1.88 -0.063 c -6.139 0 -12.818 -4.463 -18.501 -4.463 c -4.996 0 -9.819 1.085 -15.128 5.724 c -0.672 0.587 -1.535 0.919 -2.427 0.912 l -2.285 -0.104 v 17.619 h 5.815 c 1.687 0 3.369 0.185 5.015 0.552 l 14.402 3.211 c 1.3 0.29 2.63 0.427 3.962 0.407 l 7.97 -0.116 c 2.234 -0.033 4.439 -0.503 6.492 -1.386 l 28.241 -11.927 C 88.419 63.285 89.448 61.063 88.812 58.987 z" style="stroke: none; stroke-width: 1; stroke-dasharray: none; stroke-linecap: butt; stroke-linejoin: miter; stroke-miterlimit: 10; fill: rgb(241,206,160); fill-rule: nonzero; opacity: 1;" transform=" matrix(1 0 0 1 0 0) " stroke-linecap="round"/>
	<path d="M 62.647 62.246 c -0.512 0 -0.948 -0.391 -0.995 -0.91 c -0.325 -3.617 -3.308 -6.437 -6.938 -6.561 l -1.88 -0.063 c 0 0 -0.001 0 -0.002 0 c -3.267 0.001 -6.639 -1.195 -9.901 -2.353 c -3.059 -1.085 -5.949 -2.109 -8.563 -2.109 c -4.056 0 -8.946 0.65 -14.47 5.478 c -0.866 0.756 -1.977 1.17 -3.093 1.159 l -2.323 -0.105 c -0.551 -0.025 -0.979 -0.493 -0.953 -1.045 c 0.025 -0.552 0.499 -0.983 1.045 -0.953 l 2.285 0.104 c 0.613 0.014 1.227 -0.232 1.724 -0.666 c 6.021 -5.262 11.359 -5.972 15.786 -5.972 c 2.959 0 6.148 1.131 9.232 2.225 c 3.103 1.101 6.313 2.238 9.269 2.238 l 1.914 0.064 c 4.637 0.156 8.446 3.759 8.862 8.379 c 0.05 0.551 -0.356 1.036 -0.906 1.086 C 62.708 62.245 62.678 62.246 62.647 62.246 z" style="stroke: none; stroke-width: 1; stroke-dasharray: none; stroke-linecap: butt; stroke-linejoin: miter; stroke-miterlimit: 10; fill: rgb(0,0,0); fill-rule: nonzero; opacity: 1;" transform=" matrix(1 0 0 1 0 0) " stroke-linecap="round"/>
	<path d="M 43.472 78.574 c -1.321 0 -2.642 -0.146 -3.931 -0.434 L 25.14 74.929 c -1.573 -0.351 -3.187 -0.528 -4.798 -0.528 h -5.814 c -0.552 0 -1 -0.447 -1 -1 c 0 -0.553 0.448 -1 1 -1 h 5.814 c 1.757 0 3.518 0.194 5.233 0.577 l 14.401 3.211 c 1.222 0.271 2.476 0.395 3.729 0.383 l 7.97 -0.116 c 2.113 -0.03 4.17 -0.47 6.111 -1.305 l 28.248 -11.929 c 1.522 -0.655 2.309 -2.352 1.821 -3.943 c -0.48 -1.572 -2.058 -2.541 -3.676 -2.252 c -3.897 0.694 -8.246 1.838 -12.85 3.049 c -12.497 3.288 -25.42 6.687 -31.22 1.367 c -0.407 -0.374 -0.435 -1.006 -0.061 -1.413 c 0.373 -0.406 1.005 -0.435 1.413 -0.062 c 4.995 4.582 17.937 1.178 29.359 -1.827 c 4.644 -1.221 9.03 -2.375 13.009 -3.083 c 2.605 -0.465 5.162 1.099 5.937 3.636 c 0.786 2.568 -0.481 5.306 -2.949 6.368 L 58.571 76.991 c -2.178 0.937 -4.489 1.431 -6.866 1.465 l -7.97 0.116 C 43.647 78.573 43.56 78.574 43.472 78.574 z" style="stroke: none; stroke-width: 1; stroke-dasharray: none; stroke-linecap: butt; stroke-linejoin: miter; stroke-miterlimit: 10; fill: rgb(0,0,0); fill-rule: nonzero; opacity: 1;" transform=" matrix(1 0 0 1 0 0) " stroke-linecap="round"/>
	<path d="M 11.255 79.342 H 1 c -0.552 0 -1 -0.447 -1 -1 v -26.95 c 0 -0.553 0.448 -1 1 -1 h 10.254 c 2.356 0 4.273 1.917 4.273 4.273 v 20.403 C 15.528 77.425 13.611 79.342 11.255 79.342 z M 2 77.342 h 9.254 c 1.253 0 2.273 -1.02 2.273 -2.273 V 54.665 c 0 -1.254 -1.02 -2.273 -2.273 -2.273 H 2 V 77.342 z" style="stroke: none; stroke-width: 1; stroke-dasharray: none; stroke-linecap: butt; stroke-linejoin: miter; stroke-miterlimit: 10; fill: rgb(0,0,0); fill-rule: nonzero; opacity: 1;" transform=" matrix(1 0 0 1 0 0) " stroke-linecap="round"/>
	<path d="M 51.722 42.001 c -0.553 0 -1 -0.448 -1 -1 V 24.418 c 0 -0.552 0.447 -1 1 -1 s 1 0.448 1 1 v 16.582 C 52.722 41.553 52.274 42.001 51.722 42.001 z" style="stroke: none; stroke-width: 1; stroke-dasharray: none; stroke-linecap: butt; stroke-linejoin: miter; stroke-miterlimit: 10; fill: rgb(0,0,0); fill-rule: nonzero; opacity: 1;" transform=" matrix(1 0 0 1 0 0) " stroke-linecap="round"/>
	<ellipse cx="40.355" cy="27.551000000000002" rx="6.635" ry="12.991" style="stroke: none; stroke-width: 1; stroke-dasharray: none; stroke-linecap: butt; stroke-linejoin: miter; stroke-miterlimit: 10; fill: rgb(0,186,96); fill-rule: nonzero; opacity: 1;" transform=" matrix(0.4946 -0.8691 0.8691 0.4946 -3.5455 48.9973) "/>
	<ellipse cx="63.131" cy="19.955" rx="12.991" ry="6.635" style="stroke: none; stroke-width: 1; stroke-dasharray: none; stroke-linecap: butt; stroke-linejoin: miter; stroke-miterlimit: 10; fill: rgb(0,186,96); fill-rule: nonzero; opacity: 1;" transform=" matrix(0.8691 -0.4946 0.4946 0.8691 -1.6076 33.8339) "/>
	<path d="M 45.88 36.856 c -2.898 0 -6.18 -0.897 -9.301 -2.673 c -5.896 -3.355 -9.39 -8.807 -8.496 -13.258 c 0.042 -0.21 0.151 -0.402 0.311 -0.545 c 3.37 -3.042 9.841 -2.824 15.738 0.531 c 5.896 3.356 9.39 8.808 8.495 13.259 c -0.042 0.21 -0.151 0.401 -0.311 0.545 C 50.73 36.147 48.457 36.856 45.88 36.856 z M 29.99 21.649 c -0.465 3.514 2.659 7.997 7.579 10.796 c 4.918 2.8 10.37 3.196 13.152 1 c 0.466 -3.514 -2.658 -7.997 -7.578 -10.796 C 38.223 19.849 32.773 19.454 29.99 21.649 z" style="stroke: none; stroke-width: 1; stroke-dasharray: none; stroke-linecap: butt; stroke-linejoin: miter; stroke-miterlimit: 10; fill: rgb(0,0,0); fill-rule: nonzero; opacity: 1;" transform=" matrix(1 0 0 1 0 0) " stroke-linecap="round"/>
	<path d="M 57.605 29.264 c -2.577 0 -4.851 -0.709 -6.436 -2.142 c -0.159 -0.144 -0.269 -0.335 -0.311 -0.545 c -0.895 -4.451 2.599 -9.903 8.496 -13.259 c 5.896 -3.354 12.368 -3.573 15.737 -0.531 c 0.159 0.144 0.269 0.335 0.311 0.545 c 0.894 4.451 -2.601 9.903 -8.495 13.258 C 63.786 28.367 60.503 29.264 57.605 29.264 z M 52.765 25.853 c 2.782 2.195 8.231 1.799 13.153 -1 c 4.918 -2.799 8.042 -7.283 7.578 -10.796 c -2.783 -2.194 -8.235 -1.798 -13.153 1 C 55.424 17.857 52.299 22.34 52.765 25.853 z" style="stroke: none; stroke-width: 1; stroke-dasharray: none; stroke-linecap: butt; stroke-linejoin: miter; stroke-miterlimit: 10; fill: rgb(0,0,0); fill-rule: nonzero; opacity: 1;" transform=" matrix(1 0 0 1 0 0) " stroke-linecap="round"/>
</g>
</svg>