<svg xmlns="http://www.w3.org/2000/svg" xmlns:xlink="http://www.w3.org/1999/xlink" version="1.1" width="256" height="256" viewBox="0 0 256 256" xml:space="preserve">
<g style="stroke: none; stroke-width: 0; stroke-dasharray: none; stroke-linecap: butt; stroke-linejoin: miter; stroke-miterlimit: 10; fill: none; fill-rule: nonzero; opacity: 1;" transform="translate(1.4065934065934016 1.4065934065934016) scale(2.81 2.81)">
	<polyline points="21.36,30.03 45,19.62 68.64,30.03 45,40.45 21.36,30.03 " style="stroke: none; stroke-width: 1; stroke-dasharray: none; stroke-linecap: butt; stroke-linejoin: miter; stroke-miterlimit: 10; fill: rgb(250,180,0); fill-rule: nonzero; opacity: 1;" transform="  matrix(1 0 0 1 0 0) "/>
	<polygon points="45,70.38 45,40.45 68.64,30.03 68.64,59.97 " style="stroke: none; stroke-width: 1; stroke-dasharray: none; stroke-linecap: butt; stroke-linejoin: miter; stroke-miterlimit: 10; fill: rgb(194,125,0); fill-rule: nonzero; opacity: 1;" transform="  matrix(1 0 0 1 0 0) "/>
	<polygon points="45,70.38 45,40.45 21.36,30.03 21.36,59.97 " style="stroke: none; stroke-width: 1; stroke-dasharray: none; stroke-linecap: butt; stroke-linejoin: miter; stroke-miterlimit: 10; fill: rgb(220,150,0); fill-rule: nonzero; opacity: 1;" transform="  matrix(1 0 0 1 0 0) "/>
	<path d="M 45 41.45 c -0.137 0 -0.275 -0.028 -0.403 -0.085 L 20.954 30.949 c -0.363 -0.16 -0.597 -0.519 -0.597 -0.915 s 0.234 -0.755 0.597 -0.915 l 23.643 -10.417 c 0.257 -0.113 0.55 -0.113 0.807 0 l 23.643 10.417 c 0.362 0.16 0.597 0.519 0.597 0.915 s -0.234 0.755 -0.597 0.915 L 45.403 41.365 C 45.275 41.422 45.137 41.45 45 41.45 z M 23.837 30.034 L 45 39.357 l 21.163 -9.324 L 45 20.71 L 23.837 30.034 z" style="stroke: none; stroke-width: 1; stroke-dasharray: none; stroke-linecap: butt; stroke-linejoin: miter; stroke-miterlimit: 10; fill: rgb(0,0,0); fill-rule: nonzero; opacity: 1;" transform=" matrix(1 0 0 1 0 0) " stroke-linecap="round"/>
	<path d="M 45 71.383 c -0.191 0 -0.381 -0.055 -0.546 -0.162 C 44.171 71.036 44 70.721 44 70.383 V 40.45 c 0 -0.396 0.234 -0.755 0.597 -0.915 L 68.24 29.119 c 0.31 -0.136 0.666 -0.107 0.949 0.078 c 0.283 0.185 0.454 0.499 0.454 0.837 v 29.933 c 0 0.396 -0.234 0.755 -0.597 0.915 L 45.403 71.298 C 45.274 71.355 45.137 71.383 45 71.383 z M 46 41.102 V 68.85 l 21.643 -9.536 V 31.567 L 46 41.102 z" style="stroke: none; stroke-width: 1; stroke-dasharray: none; stroke-linecap: butt; stroke-linejoin: miter; stroke-miterlimit: 10; fill: rgb(0,0,0); fill-rule: nonzero; opacity: 1;" transform=" matrix(1 0 0 1 0 0) " stroke-linecap="round"/>
	<path d="M 45 71.383 c -0.137 0 -0.274 -0.028 -0.403 -0.085 L 20.954 60.882 c -0.363 -0.16 -0.597 -0.519 -0.597 -0.915 V 30.034 c 0 -0.338 0.171 -0.653 0.454 -0.837 c 0.284 -0.185 0.641 -0.214 0.95 -0.078 l 23.643 10.416 C 45.766 39.695 46 40.054 46 40.45 v 29.933 c 0 0.338 -0.171 0.653 -0.454 0.838 C 45.381 71.328 45.191 71.383 45 71.383 z M 22.357 59.315 L 44 68.85 V 41.102 l -21.643 -9.536 V 59.315 z" style="stroke: none; stroke-width: 1; stroke-dasharray: none; stroke-linecap: butt; stroke-linejoin: miter; stroke-miterlimit: 10; fill: rgb(0,0,0); fill-rule: nonzero; opacity: 1;" transform=" matrix(1 0 0 1 0 0) " stroke-linecap="round"/>
	<path d="M 56.449 56.191 c -0.553 0 -1 -0.447 -1 -1 V 36.058 L 32.403 25.904 c -0.505 -0.223 -0.734 -0.813 -0.512 -1.318 c 0.224 -0.505 0.813 -0.733 1.318 -0.512 l 23.643 10.417 c 0.362 0.16 0.597 0.519 0.597 0.915 v 19.785 C 57.448 55.743 57.001 56.191 56.449 56.191 z" style="stroke: none; stroke-width: 1; stroke-dasharray: none; stroke-linecap: butt; stroke-linejoin: miter; stroke-miterlimit: 10; fill: rgb(0,0,0); fill-rule: nonzero; opacity: 1;" transform=" matrix(1 0 0 1 0 0) " stroke-linecap="round"/>
	<path d="M 44.958 89.977 c -9.951 0 -19.961 -3.275 -28.278 -10.011 C 2.778 68.707 -3.135 50.285 1.613 33.035 c 0.147 -0.533 0.696 -0.847 1.23 -0.699 c 0.532 0.147 0.845 0.697 0.699 1.23 c -4.537 16.484 1.114 34.086 14.397 44.845 c 18.423 14.922 45.55 12.074 60.473 -6.349 c 0.348 -0.427 0.977 -0.494 1.407 -0.147 c 0.429 0.348 0.495 0.977 0.147 1.407 C 71.086 84.284 58.073 89.977 44.958 89.977 z" style="stroke: none; stroke-width: 1; stroke-dasharray: none; stroke-linecap: butt; stroke-linejoin: miter; stroke-miterlimit: 10; fill: rgb(0,0,0); fill-rule: nonzero; opacity: 1;" transform=" matrix(1 0 0 1 0 0) " stroke-linecap="round"/>
	<path d="M 87.551 57.228 c -0.085 0 -0.17 -0.011 -0.256 -0.033 c -0.534 -0.141 -0.852 -0.687 -0.712 -1.222 c 4.3 -16.334 -1.4 -33.756 -14.522 -44.384 C 53.64 -3.333 26.511 -0.484 11.588 17.938 c -0.348 0.43 -0.977 0.496 -1.406 0.147 c -0.429 -0.347 -0.495 -0.977 -0.147 -1.406 C 25.651 -2.601 54.04 -5.58 73.321 10.035 c 13.731 11.122 19.695 29.354 15.195 46.448 C 88.399 56.931 87.994 57.228 87.551 57.228 z" style="stroke: none; stroke-width: 1; stroke-dasharray: none; stroke-linecap: butt; stroke-linejoin: miter; stroke-miterlimit: 10; fill: rgb(0,0,0); fill-rule: nonzero; opacity: 1;" transform=" matrix(1 0 0 1 0 0) " stroke-linecap="round"/>
	<path d="M 79.474 84.368 c -0.539 0 -0.984 -0.43 -0.999 -0.973 l -0.26 -9.677 l -9.676 0.261 c -0.56 0.011 -1.013 -0.42 -1.027 -0.973 c -0.015 -0.553 0.421 -1.012 0.973 -1.027 l 10.676 -0.287 c 0.563 -0.008 1.013 0.42 1.027 0.973 l 0.287 10.676 c 0.015 0.553 -0.421 1.012 -0.973 1.027 C 79.493 84.368 79.484 84.368 79.474 84.368 z" style="stroke: none; stroke-width: 1; stroke-dasharray: none; stroke-linecap: butt; stroke-linejoin: miter; stroke-miterlimit: 10; fill: rgb(0,0,0); fill-rule: nonzero; opacity: 1;" transform=" matrix(1 0 0 1 0 0) " stroke-linecap="round"/>
	<path d="M 10.812 18.309 c -0.255 0 -0.502 -0.098 -0.688 -0.274 c -0.192 -0.183 -0.305 -0.434 -0.312 -0.699 L 9.525 6.66 c -0.015 -0.552 0.42 -1.012 0.973 -1.026 c 0.564 -0.006 1.012 0.42 1.026 0.973 l 0.26 9.677 l 9.677 -0.261 c 0.558 -0.017 1.012 0.421 1.026 0.973 c 0.015 0.552 -0.42 1.012 -0.973 1.026 l -10.676 0.288 C 10.83 18.309 10.82 18.309 10.812 18.309 z" style="stroke: none; stroke-width: 1; stroke-dasharray: none; stroke-linecap: butt; stroke-linejoin: miter; stroke-miterlimit: 10; fill: rgb(0,0,0); fill-rule: nonzero; opacity: 1;" transform=" matrix(1 0 0 1 0 0) " stroke-linecap="round"/>
</g>
</svg>